<?xml version="1.0" encoding="UTF-8" standalone="no"?>
<!DOCTYPE svg PUBLIC "-//W3C//DTD SVG 1.1//EN" "http://www.w3.org/Graphics/SVG/1.1/DTD/svg11.dtd">
<svg version="1.1" xmlns="http://www.w3.org/2000/svg" xmlns:xlink="http://www.w3.org/1999/xlink" preserveAspectRatio="xMidYMid meet" viewBox="0 0 640 640" width="640" height="640"><defs><path d="M294.48 269.86L224.68 467.44L294.48 467.44L244.63 610.14L434.09 412.56L334.37 412.56L404.17 269.86L294.48 269.86Z" id="a4AHsAiDuh"></path><path d="M583.25 2.28C614.59 2.28 640 27.68 640 59.02C640 142.08 640 334.49 640 417.54C640 448.88 614.59 474.29 583.25 474.29C467.46 474.29 176.84 474.29 61.05 474.29C29.71 474.29 4.3 448.88 4.3 417.54C4.3 334.49 4.3 142.08 4.3 59.02C4.3 27.68 29.71 2.28 61.05 2.28C176.84 2.28 467.46 2.28 583.25 2.28Z" id="a2LK5imntI"></path></defs><g><g><g><use xlink:href="#a4AHsAiDuh" opacity="1" fill="#262a33" fill-opacity="1"></use><g><filter id="shadow16712910" x="213.68" y="258.86" width="234.4" height="365.28" filterUnits="userSpaceOnUse" primitiveUnits="userSpaceOnUse"><feFlood></feFlood><feComposite in2="SourceAlpha" operator="out"></feComposite><feGaussianBlur stdDeviation="1"></feGaussianBlur><feOffset dx="-3" dy="-3" result="afterOffset"></feOffset><feFlood flood-color="#636363" flood-opacity="0.8"></feFlood><feComposite in2="afterOffset" operator="in"></feComposite><feMorphology operator="dilate" radius="1"></feMorphology><feComposite in2="SourceAlpha" operator="in"></feComposite></filter><path d="M294.48 269.86L224.68 467.44L294.48 467.44L244.63 610.14L434.09 412.56L334.37 412.56L404.17 269.86L294.48 269.86Z" id="anPQ0yJk5" fill="white" fill-opacity="1" filter="url(#shadow16712910)"></path></g></g><g><use xlink:href="#a2LK5imntI" opacity="1" fill="#262a33" fill-opacity="1"></use><g><filter id="shadow12946322" x="-8.7" y="-10.72" width="664.7" height="501.01" filterUnits="userSpaceOnUse" primitiveUnits="userSpaceOnUse"><feFlood></feFlood><feComposite in2="SourceAlpha" operator="out"></feComposite><feGaussianBlur stdDeviation="0"></feGaussianBlur><feOffset dx="-3" dy="-3" result="afterOffset"></feOffset><feFlood flood-color="#636363" flood-opacity="0.8"></feFlood><feComposite in2="afterOffset" operator="in"></feComposite><feMorphology operator="dilate" radius="5"></feMorphology><feComposite in2="SourceAlpha" operator="in"></feComposite></filter><path d="M583.25 2.28C614.59 2.28 640 27.68 640 59.02C640 142.08 640 334.49 640 417.54C640 448.88 614.59 474.29 583.25 474.29C467.46 474.29 176.84 474.29 61.05 474.29C29.71 474.29 4.3 448.88 4.3 417.54C4.3 334.49 4.3 142.08 4.3 59.02C4.3 27.68 29.71 2.28 61.05 2.28C176.84 2.28 467.46 2.28 583.25 2.28Z" id="aDJYg2gqj" fill="white" fill-opacity="1" filter="url(#shadow12946322)"></path></g></g></g></g></svg>