<?xml version="1.0" encoding="UTF-8" standalone="no"?>
<!DOCTYPE svg PUBLIC "-//W3C//DTD SVG 1.1//EN" "http://www.w3.org/Graphics/SVG/1.1/DTD/svg11.dtd">
<svg version="1.1" xmlns="http://www.w3.org/2000/svg" xmlns:xlink="http://www.w3.org/1999/xlink" preserveAspectRatio="xMidYMid meet" viewBox="0 0 100 200" width="100" height="200"><defs><path d="M62.91 133.04L78.45 72L47.37 72L16.29 72L31.83 133.04L47.37 194.08L62.91 133.04Z" id="b22k5w4xNq"></path><clipPath id="clipj6VpwkExL"><use xlink:href="#b22k5w4xNq" opacity="1"></use></clipPath><path d="M77.81 35.09C77.81 51.64 64.37 65.09 47.81 65.09C31.26 65.09 17.81 51.64 17.81 35.09C17.81 18.53 31.26 5.09 47.81 5.09C64.37 5.09 77.81 18.53 77.81 35.09Z" id="c5jrPSbqem"></path><clipPath id="clipcZRzx21D8"><use xlink:href="#c5jrPSbqem" opacity="1"></use></clipPath></defs><g><g><g><g><filter id="shadow1574921" x="1.29" y="57" width="94.16" height="155.08" filterUnits="userSpaceOnUse" primitiveUnits="userSpaceOnUse"><feFlood></feFlood><feComposite in2="SourceAlpha" operator="in"></feComposite><feGaussianBlur stdDeviation="1.73"></feGaussianBlur><feOffset dx="2" dy="3" result="afterOffset"></feOffset><feFlood flood-color="#ac9c00" flood-opacity="0.5"></feFlood><feComposite in2="afterOffset" operator="in"></feComposite><feMorphology operator="dilate" radius="1"></feMorphology><feComposite in2="SourceAlpha" operator="out"></feComposite></filter><path d="M62.91 133.04L78.45 72L47.37 72L16.29 72L31.83 133.04L47.37 194.08L62.91 133.04Z" id="d6ElOsuIXV" fill="white" fill-opacity="1" filter="url(#shadow1574921)"></path></g><use xlink:href="#b22k5w4xNq" opacity="1" fill="#ffd000" fill-opacity="1"></use><g clip-path="url(#clipj6VpwkExL)"><use xlink:href="#b22k5w4xNq" opacity="1" fill-opacity="0" stroke="#c5c5c5" stroke-width="2" stroke-opacity="1"></use></g><g><filter id="shadow12276747" x="7.29" y="63" width="81.16" height="141.08" filterUnits="userSpaceOnUse" primitiveUnits="userSpaceOnUse"><feFlood></feFlood><feComposite in2="SourceAlpha" operator="out"></feComposite><feGaussianBlur stdDeviation="1"></feGaussianBlur><feOffset dx="1" dy="1" result="afterOffset"></feOffset><feFlood flood-color="#ffffff" flood-opacity="0.8"></feFlood><feComposite in2="afterOffset" operator="in"></feComposite><feMorphology operator="dilate" radius="1"></feMorphology><feComposite in2="SourceAlpha" operator="in"></feComposite></filter><path d="M62.91 133.04L78.45 72L47.37 72L16.29 72L31.83 133.04L47.37 194.08L62.91 133.04Z" id="a2vO0JNJ6T" fill="white" fill-opacity="1" filter="url(#shadow12276747)"></path></g></g><g><g><filter id="shadow9908828" x="2.81" y="-9.91" width="92" height="93" filterUnits="userSpaceOnUse" primitiveUnits="userSpaceOnUse"><feFlood></feFlood><feComposite in2="SourceAlpha" operator="in"></feComposite><feGaussianBlur stdDeviation="1.73"></feGaussianBlur><feOffset dx="2" dy="3" result="afterOffset"></feOffset><feFlood flood-color="#ac9c00" flood-opacity="0.5"></feFlood><feComposite in2="afterOffset" operator="in"></feComposite><feMorphology operator="dilate" radius="1"></feMorphology><feComposite in2="SourceAlpha" operator="out"></feComposite></filter><path d="M77.81 35.09C77.81 51.64 64.37 65.09 47.81 65.09C31.26 65.09 17.81 51.64 17.81 35.09C17.81 18.53 31.26 5.09 47.81 5.09C64.37 5.09 77.81 18.53 77.81 35.09Z" id="f8p6SkYcyi" fill="white" fill-opacity="1" filter="url(#shadow9908828)"></path></g><use xlink:href="#c5jrPSbqem" opacity="1" fill="#ffd000" fill-opacity="1"></use><g clip-path="url(#clipcZRzx21D8)"><use xlink:href="#c5jrPSbqem" opacity="1" fill-opacity="0" stroke="#c5c5c5" stroke-width="2" stroke-opacity="1"></use></g><g><filter id="shadow13915300" x="8.81" y="-3.91" width="79" height="79" filterUnits="userSpaceOnUse" primitiveUnits="userSpaceOnUse"><feFlood></feFlood><feComposite in2="SourceAlpha" operator="out"></feComposite><feGaussianBlur stdDeviation="1"></feGaussianBlur><feOffset dx="1" dy="1" result="afterOffset"></feOffset><feFlood flood-color="#ffffff" flood-opacity="0.8"></feFlood><feComposite in2="afterOffset" operator="in"></feComposite><feMorphology operator="dilate" radius="1"></feMorphology><feComposite in2="SourceAlpha" operator="in"></feComposite></filter><path d="M77.81 35.09C77.81 51.64 64.37 65.09 47.81 65.09C31.26 65.09 17.81 51.64 17.81 35.09C17.81 18.53 31.26 5.09 47.81 5.09C64.37 5.09 77.81 18.53 77.81 35.09Z" id="e2fhdwq5ue" fill="white" fill-opacity="1" filter="url(#shadow13915300)"></path></g></g></g></g></svg>