<?xml version="1.0" encoding="UTF-8" standalone="no"?>
<!DOCTYPE svg PUBLIC "-//W3C//DTD SVG 1.1//EN" "http://www.w3.org/Graphics/SVG/1.1/DTD/svg11.dtd">
<svg version="1.1" xmlns="http://www.w3.org/2000/svg" xmlns:xlink="http://www.w3.org/1999/xlink" preserveAspectRatio="xMidYMid meet" viewBox="0 0 100 200" width="100" height="200"><defs><path d="M68.96 135.79L88.5 74.75L49.42 74.75L10.34 74.75L29.88 135.79L49.42 196.83L68.96 135.79Z" id="davfplpf7"></path><clipPath id="clipe28XfFmB9"><use xlink:href="#davfplpf7" opacity="1"></use></clipPath><path d="M89.5 42.11C89.5 64.19 71.58 82.11 49.5 82.11C27.42 82.11 9.5 64.19 9.5 42.11C9.5 20.03 27.42 2.11 49.5 2.11C71.58 2.11 89.5 20.03 89.5 42.11Z" id="b1rSETCYC7"></path><clipPath id="clipca3vpMZn4"><use xlink:href="#b1rSETCYC7" opacity="1"></use></clipPath></defs><g><g><g><g><filter id="shadow6943164" x="-4.66" y="59.75" width="110.16" height="155.08" filterUnits="userSpaceOnUse" primitiveUnits="userSpaceOnUse"><feFlood></feFlood><feComposite in2="SourceAlpha" operator="in"></feComposite><feGaussianBlur stdDeviation="1.73"></feGaussianBlur><feOffset dx="2" dy="3" result="afterOffset"></feOffset><feFlood flood-color="#ac9c00" flood-opacity="0.5"></feFlood><feComposite in2="afterOffset" operator="in"></feComposite><feMorphology operator="dilate" radius="1"></feMorphology><feComposite in2="SourceAlpha" operator="out"></feComposite></filter><path d="M68.96 135.79L88.5 74.75L49.42 74.75L10.34 74.75L29.88 135.79L49.42 196.83L68.96 135.79Z" id="a2HhMgS717" fill="white" fill-opacity="1" filter="url(#shadow6943164)"></path></g><use xlink:href="#davfplpf7" opacity="1" fill="#ffd000" fill-opacity="1"></use><g clip-path="url(#clipe28XfFmB9)"><use xlink:href="#davfplpf7" opacity="1" fill-opacity="0" stroke="#c5c5c5" stroke-width="2" stroke-opacity="1"></use></g><g><filter id="shadow16470963" x="1.34" y="65.75" width="97.16" height="141.08" filterUnits="userSpaceOnUse" primitiveUnits="userSpaceOnUse"><feFlood></feFlood><feComposite in2="SourceAlpha" operator="out"></feComposite><feGaussianBlur stdDeviation="1"></feGaussianBlur><feOffset dx="1" dy="1" result="afterOffset"></feOffset><feFlood flood-color="#ffffff" flood-opacity="0.8"></feFlood><feComposite in2="afterOffset" operator="in"></feComposite><feMorphology operator="dilate" radius="1"></feMorphology><feComposite in2="SourceAlpha" operator="in"></feComposite></filter><path d="M68.96 135.79L88.5 74.75L49.42 74.75L10.34 74.75L29.88 135.79L49.42 196.83L68.96 135.79Z" id="b7Fz6kh17" fill="white" fill-opacity="1" filter="url(#shadow16470963)"></path></g></g><g><g><filter id="shadow10457397" x="-5.5" y="-12.89" width="112" height="113" filterUnits="userSpaceOnUse" primitiveUnits="userSpaceOnUse"><feFlood></feFlood><feComposite in2="SourceAlpha" operator="in"></feComposite><feGaussianBlur stdDeviation="1.73"></feGaussianBlur><feOffset dx="2" dy="3" result="afterOffset"></feOffset><feFlood flood-color="#ad9d00" flood-opacity="0.5"></feFlood><feComposite in2="afterOffset" operator="in"></feComposite><feMorphology operator="dilate" radius="1"></feMorphology><feComposite in2="SourceAlpha" operator="out"></feComposite></filter><path d="M89.5 42.11C89.5 64.19 71.58 82.11 49.5 82.11C27.42 82.11 9.5 64.19 9.5 42.11C9.5 20.03 27.42 2.11 49.5 2.11C71.58 2.11 89.5 20.03 89.5 42.11Z" id="b1kDCXR92g" fill="white" fill-opacity="1" filter="url(#shadow10457397)"></path></g><use xlink:href="#b1rSETCYC7" opacity="1" fill="#ffd000" fill-opacity="1"></use><g clip-path="url(#clipca3vpMZn4)"><use xlink:href="#b1rSETCYC7" opacity="1" fill-opacity="0" stroke="#c5c5c5" stroke-width="2" stroke-opacity="1"></use></g><g><filter id="shadow7891600" x="0.5" y="-6.89" width="99" height="99" filterUnits="userSpaceOnUse" primitiveUnits="userSpaceOnUse"><feFlood></feFlood><feComposite in2="SourceAlpha" operator="out"></feComposite><feGaussianBlur stdDeviation="1"></feGaussianBlur><feOffset dx="1" dy="1" result="afterOffset"></feOffset><feFlood flood-color="#ffffff" flood-opacity="0.8"></feFlood><feComposite in2="afterOffset" operator="in"></feComposite><feMorphology operator="dilate" radius="1"></feMorphology><feComposite in2="SourceAlpha" operator="in"></feComposite></filter><path d="M89.5 42.11C89.5 64.19 71.58 82.11 49.5 82.11C27.42 82.11 9.5 64.19 9.5 42.11C9.5 20.03 27.42 2.11 49.5 2.11C71.58 2.11 89.5 20.03 89.5 42.11Z" id="a22xwT9HQB" fill="white" fill-opacity="1" filter="url(#shadow7891600)"></path></g></g></g></g></svg>